<?xml version="1.0" encoding="UTF-8" standalone="no"?>
<!DOCTYPE svg PUBLIC "-//W3C//DTD SVG 1.1//EN" "http://www.w3.org/Graphics/SVG/1.1/DTD/svg11.dtd">
<svg width="100%" height="100%" viewBox="0 0 800 800" version="1.1" xmlns="http://www.w3.org/2000/svg" xmlns:xlink="http://www.w3.org/1999/xlink" xml:space="preserve" xmlns:serif="http://www.serif.com/" style="fill-rule:evenodd;clip-rule:evenodd;stroke-linecap:round;stroke-linejoin:round;">
    <g transform="matrix(33.3333,0,0,33.3333,0,0)">
        <path d="M3,8L8.45,11.633C9.733,12.489 10.375,12.916 11.068,13.083C11.681,13.229 12.319,13.229 12.932,13.083C13.626,12.916 14.267,12.489 15.55,11.633L21,8M6.2,19L17.8,19C18.92,19 19.48,19 19.908,18.782C20.284,18.59 20.59,18.284 20.782,17.908C21,17.48 21,16.92 21,15.8L21,8.2C21,7.08 21,6.52 20.782,6.092C20.59,5.716 20.284,5.41 19.908,5.218C19.48,5 18.92,5 17.8,5L6.2,5C5.08,5 4.52,5 4.092,5.218C3.716,5.41 3.41,5.716 3.218,6.092C3,6.52 3,7.08 3,8.2L3,15.8C3,16.92 3,17.48 3.218,17.908C3.41,18.284 3.716,18.59 4.092,18.782C4.52,19 5.08,19 6.2,19Z" style="fill:none;fill-rule:nonzero;stroke:rgb(51,54,63);stroke-width:2px;"/>
    </g>
</svg>
