<?xml version="1.0" encoding="UTF-8" standalone="no"?>
<!DOCTYPE svg PUBLIC "-//W3C//DTD SVG 1.1//EN" "http://www.w3.org/Graphics/SVG/1.1/DTD/svg11.dtd">
<svg width="100%" height="100%" viewBox="0 0 800 800" version="1.1" xmlns="http://www.w3.org/2000/svg" xmlns:xlink="http://www.w3.org/1999/xlink" xml:space="preserve" xmlns:serif="http://www.serif.com/" style="fill-rule:evenodd;clip-rule:evenodd;stroke-linejoin:round;stroke-miterlimit:2;">
    <g transform="matrix(33.3333,0,0,33.3333,0,0)">
        <path d="M12,23C18.075,23 23,18.075 23,12C23,5.925 18.075,1 12,1C5.925,1 1,5.925 1,12C1,18.075 5.925,23 12,23ZM5.144,17.82C3.811,16.252 3.007,14.22 3.007,12L3.007,11.998C6.613,11.962 9.576,11.484 12.242,10.578C12.467,11.061 12.685,11.553 12.896,12.056C12.556,12.169 12.221,12.295 11.892,12.434C9.242,13.549 7.005,15.461 5.144,17.82ZM6.606,19.197C8.109,20.325 9.976,20.993 12,20.993C13.219,20.993 14.381,20.751 15.441,20.311C14.967,18.037 14.352,15.907 13.627,13.922C13.3,14.026 12.981,14.145 12.668,14.277C10.356,15.25 8.338,16.965 6.606,19.197ZM15.592,13.477C16.248,15.302 16.813,17.24 17.267,19.29C19.048,18.001 20.338,16.076 20.803,13.847C18.914,13.359 17.182,13.26 15.592,13.477ZM14.858,11.566C16.754,11.241 18.8,11.307 20.992,11.833C20.958,9.974 20.36,8.253 19.362,6.833C17.636,8.053 15.928,9.062 14.111,9.854C14.369,10.412 14.618,10.983 14.858,11.566ZM11.346,8.768C8.997,9.534 6.39,9.945 3.231,9.995C3.857,7.246 5.743,4.976 8.249,3.824C9.349,5.313 10.393,6.961 11.346,8.768ZM13.23,8.056C14.888,7.342 16.447,6.431 18.028,5.326C16.433,3.885 14.319,3.007 12,3.007C11.401,3.007 10.817,3.065 10.251,3.177C11.31,4.663 12.313,6.29 13.23,8.056Z" style="fill:rgb(51,54,63);"/>
    </g>
</svg>
